<svg width="400" height="300" xmlns="http://www.w3.org/2000/svg">
  <defs>
    <linearGradient id="schoolGradient" x1="0%" y1="0%" x2="100%" y2="100%">
      <stop offset="0%" style="stop-color:#4facfe;stop-opacity:1" />
      <stop offset="50%" style="stop-color:#00f2fe;stop-opacity:1" />
      <stop offset="100%" style="stop-color:#43e97b;stop-opacity:1" />
    </linearGradient>
  </defs>
  
  <!-- Background -->
  <rect width="400" height="300" fill="url(#schoolGradient)"/>
  
  <!-- Main dashboard -->
  <rect x="30" y="40" width="340" height="220" fill="#ffffff" stroke="#e2e8f0" stroke-width="2" rx="12" opacity="0.95"/>
  
  <!-- Header bar -->
  <rect x="40" y="50" width="320" height="35" fill="#4299e1" rx="6"/>
  <text x="60" y="70" fill="#ffffff" font-family="sans-serif" font-size="12" font-weight="bold">School Management System</text>
  
  <!-- Menu icon -->
  <rect x="330" y="60" width="20" height="2" fill="#ffffff" rx="1"/>
  <rect x="330" y="65" width="20" height="2" fill="#ffffff" rx="1"/>
  <rect x="330" y="70" width="20" height="2" fill="#ffffff" rx="1"/>
  
  <!-- Sidebar -->
  <rect x="40" y="90" width="80" height="160" fill="#f7fafc" stroke="#e2e8f0" stroke-width="1" rx="4"/>
  
  <!-- Menu items -->
  <rect x="45" y="100" width="70" height="20" fill="#4299e1" rx="3"/>
  <text x="55" y="112" fill="#ffffff" font-family="sans-serif" font-size="8" font-weight="bold">Étudiants</text>
  
  <rect x="45" y="125" width="70" height="20" fill="#e2e8f0" rx="3"/>
  <text x="55" y="137" fill="#4a5568" font-family="sans-serif" font-size="8">Professeurs</text>
  
  <rect x="45" y="150" width="70" height="20" fill="#e2e8f0" rx="3"/>
  <text x="55" y="162" fill="#4a5568" font-family="sans-serif" font-size="8">Cours</text>
  
  <rect x="45" y="175" width="70" height="20" fill="#e2e8f0" rx="3"/>
  <text x="55" y="187" fill="#4a5568" font-family="sans-serif" font-size="8">Notes</text>
  
  <rect x="45" y="200" width="70" height="20" fill="#e2e8f0" rx="3"/>
  <text x="55" y="212" fill="#4a5568" font-family="sans-serif" font-size="8">Rapports</text>
  
  <!-- Main content area -->
  <rect x="130" y="90" width="230" height="160" fill="#ffffff" stroke="#e2e8f0" stroke-width="1" rx="4"/>
  
  <!-- Content header -->
  <rect x="140" y="100" width="210" height="25" fill="#f7fafc" rx="3"/>
  <text x="150" y="115" fill="#2d3748" font-family="sans-serif" font-size="10" font-weight="bold">Liste des Étudiants</text>
  
  <!-- Search bar -->
  <rect x="270" y="105" width="70" height="15" fill="#ffffff" stroke="#cbd5e0" stroke-width="1" rx="7"/>
  <text x="275" y="114" fill="#a0aec0" font-family="sans-serif" font-size="7">Rechercher...</text>
  
  <!-- Table headers -->
  <rect x="140" y="130" width="210" height="15" fill="#edf2f7" rx="2"/>
  <text x="145" y="140" fill="#4a5568" font-family="sans-serif" font-size="7" font-weight="bold">Nom</text>
  <text x="190" y="140" fill="#4a5568" font-family="sans-serif" font-size="7" font-weight="bold">Classe</text>
  <text x="230" y="140" fill="#4a5568" font-family="sans-serif" font-size="7" font-weight="bold">Email</text>
  <text x="300" y="140" fill="#4a5568" font-family="sans-serif" font-size="7" font-weight="bold">Actions</text>
  
  <!-- Table rows -->
  <rect x="140" y="150" width="210" height="12" fill="#ffffff" rx="1"/>
  <text x="145" y="158" fill="#2d3748" font-family="sans-serif" font-size="6">Jean Dupont</text>
  <text x="190" y="158" fill="#2d3748" font-family="sans-serif" font-size="6">3ème A</text>
  <text x="230" y="158" fill="#2d3748" font-family="sans-serif" font-size="6">jean@email.com</text>
  <circle cx="310" cy="156" r="3" fill="#4299e1"/>
  
  <rect x="140" y="165" width="210" height="12" fill="#f7fafc" rx="1"/>
  <text x="145" y="173" fill="#2d3748" font-family="sans-serif" font-size="6">Marie Martin</text>
  <text x="190" y="173" fill="#2d3748" font-family="sans-serif" font-size="6">2ème B</text>
  <text x="230" y="173" fill="#2d3748" font-family="sans-serif" font-size="6">marie@email.com</text>
  <circle cx="310" cy="171" r="3" fill="#48bb78"/>
  
  <rect x="140" y="180" width="210" height="12" fill="#ffffff" rx="1"/>
  <text x="145" y="188" fill="#2d3748" font-family="sans-serif" font-size="6">Paul Bernard</text>
  <text x="190" y="188" fill="#2d3748" font-family="sans-serif" font-size="6">1ère C</text>
  <text x="230" y="188" fill="#2d3748" font-family="sans-serif" font-size="6">paul@email.com</text>
  <circle cx="310" cy="186" r="3" fill="#ed8936"/>
  
  <!-- Statistics cards -->
  <rect x="140" y="210" width="45" height="30" fill="#e6fffa" stroke="#81e6d9" stroke-width="1" rx="4"/>
  <text x="148" y="220" fill="#047857" font-family="sans-serif" font-size="8" font-weight="bold">142</text>
  <text x="148" y="230" fill="#065f46" font-family="sans-serif" font-size="6">Étudiants</text>
  
  <rect x="195" y="210" width="45" height="30" fill="#fef5e7" stroke="#f6e05e" stroke-width="1" rx="4"/>
  <text x="203" y="220" fill="#975a16" font-family="sans-serif" font-size="8" font-weight="bold">24</text>
  <text x="203" y="230" fill="#744210" font-family="sans-serif" font-size="6">Professeurs</text>
  
  <rect x="250" y="210" width="45" height="30" fill="#e0e7ff" stroke="#a5b4fc" stroke-width="1" rx="4"/>
  <text x="258" y="220" fill="#3730a3" font-family="sans-serif" font-size="8" font-weight="bold">18</text>
  <text x="258" y="230" fill="#312e81" font-family="sans-serif" font-size="6">Classes</text>
  
  <rect x="305" y="210" width="45" height="30" fill="#fce7f3" stroke="#f9a8d4" stroke-width="1" rx="4"/>
  <text x="313" y="220" fill="#be185d" font-family="sans-serif" font-size="8" font-weight="bold">567</text>
  <text x="313" y="230" fill="#9d174d" font-family="sans-serif" font-size="6">Notes</text>
  
  <!-- Title -->
  <text x="200" y="285" text-anchor="middle" fill="#ffffff" font-family="sans-serif" font-size="14" font-weight="bold">
    School Management System
  </text>
</svg>